<svg xmlns="http://www.w3.org/2000/svg" viewBox="0 0 1200 675" width="1200" height="675">
  <defs>
    <linearGradient id="bg" x1="0%" y1="0%" x2="100%" y2="100%">
      <stop offset="0%" style="stop-color:#120f0a;stop-opacity:1"/>
      <stop offset="100%" style="stop-color:#100e0a;stop-opacity:1"/>
    </linearGradient>
    <linearGradient id="accent" x1="0%" y1="0%" x2="100%" y2="0%">
      <stop offset="0%" style="stop-color:#f59e0b;stop-opacity:1"/>
      <stop offset="100%" style="stop-color:#f59e0b;stop-opacity:0.6"/>
    </linearGradient>
  </defs>
  
  <!-- Background -->
  <rect width="1200" height="675" fill="url(#bg)"/>
  
  <!-- Grid lines -->
  <g stroke="rgba(255,255,255,0.04)" stroke-width="1">
    <line x1="0" y1="67" x2="1200" y2="67"/>
    <line x1="0" y1="135" x2="1200" y2="135"/>
    <line x1="0" y1="202" x2="1200" y2="202"/>
    <line x1="0" y1="270" x2="1200" y2="270"/>
    <line x1="0" y1="337" x2="1200" y2="337"/>
    <line x1="0" y1="405" x2="1200" y2="405"/>
    <line x1="0" y1="472" x2="1200" y2="472"/>
    <line x1="0" y1="540" x2="1200" y2="540"/>
    <line x1="0" y1="607" x2="1200" y2="607"/>
    <line x1="120" y1="0" x2="120" y2="675"/>
    <line x1="240" y1="0" x2="240" y2="675"/>
    <line x1="360" y1="0" x2="360" y2="675"/>
    <line x1="480" y1="0" x2="480" y2="675"/>
    <line x1="600" y1="0" x2="600" y2="675"/>
    <line x1="720" y1="0" x2="720" y2="675"/>
    <line x1="840" y1="0" x2="840" y2="675"/>
    <line x1="960" y1="0" x2="960" y2="675"/>
    <line x1="1080" y1="0" x2="1080" y2="675"/>
  </g>
  
  <!-- Nav bar -->
  <rect x="0" y="0" width="1200" height="56" fill="rgba(0,0,0,0.4)" rx="0"/>
  <circle cx="36" cy="28" r="8" fill="#f59e0b" opacity="0.9"/>
  <rect x="56" y="22" width="80" height="12" rx="6" fill="rgba(255,255,255,0.15)"/>
  <rect x="900" y="20" width="60" height="16" rx="8" fill="rgba(255,255,255,0.08)"/>
  <rect x="970" y="20" width="60" height="16" rx="8" fill="rgba(255,255,255,0.08)"/>
  <rect x="1060" y="16" width="80" height="24" rx="12" fill="#f59e0b" opacity="0.8"/>
  
  <!-- Sidebar -->
  <rect x="0" y="56" width="220" height="619" fill="rgba(0,0,0,0.3)"/>
  <rect x="16" y="80" width="188" height="36" rx="8" fill="#f59e0b" opacity="0.2"/>
  <rect x="32" y="94" width="100" height="10" rx="5" fill="#f59e0b" opacity="0.8"/>
  <rect x="16" y="126" width="188" height="36" rx="8" fill="rgba(255,255,255,0.04)"/>
  <rect x="32" y="140" width="80" height="10" rx="5" fill="rgba(255,255,255,0.2)"/>
  <rect x="16" y="172" width="188" height="36" rx="8" fill="rgba(255,255,255,0.04)"/>
  <rect x="32" y="186" width="90" height="10" rx="5" fill="rgba(255,255,255,0.2)"/>
  <rect x="16" y="218" width="188" height="36" rx="8" fill="rgba(255,255,255,0.04)"/>
  <rect x="32" y="232" width="70" height="10" rx="5" fill="rgba(255,255,255,0.2)"/>
  
  <!-- Main content area -->
  <!-- KPI cards -->
  <rect x="240" y="80" width="220" height="100" rx="12" fill="rgba(255,255,255,0.05)" stroke="rgba(255,255,255,0.08)" stroke-width="1"/>
  <rect x="264" y="104" width="80" height="8" rx="4" fill="rgba(255,255,255,0.2)"/>
  <rect x="264" y="124" width="120" height="24" rx="6" fill="rgba(255,255,255,0.6)"/>
  <rect x="264" y="158" width="60" height="8" rx="4" fill="rgba(74,222,128,0.6)"/>
  
  <rect x="476" y="80" width="220" height="100" rx="12" fill="rgba(255,255,255,0.05)" stroke="rgba(255,255,255,0.08)" stroke-width="1"/>
  <rect x="500" y="104" width="80" height="8" rx="4" fill="rgba(255,255,255,0.2)"/>
  <rect x="500" y="124" width="120" height="24" rx="6" fill="rgba(255,255,255,0.6)"/>
  <rect x="500" y="158" width="60" height="8" rx="4" fill="rgba(251,146,60,0.6)"/>
  
  <rect x="712" y="80" width="220" height="100" rx="12" fill="rgba(255,255,255,0.05)" stroke="rgba(255,255,255,0.08)" stroke-width="1"/>
  <rect x="736" y="104" width="80" height="8" rx="4" fill="rgba(255,255,255,0.2)"/>
  <rect x="736" y="124" width="120" height="24" rx="6" fill="rgba(255,255,255,0.6)"/>
  <rect x="736" y="158" width="60" height="8" rx="4" fill="rgba(74,222,128,0.6)"/>
  
  <rect x="948" y="80" width="220" height="100" rx="12" fill="rgba(255,255,255,0.05)" stroke="rgba(255,255,255,0.08)" stroke-width="1"/>
  <rect x="972" y="104" width="80" height="8" rx="4" fill="rgba(255,255,255,0.2)"/>
  <rect x="972" y="124" width="120" height="24" rx="6" fill="rgba(255,255,255,0.6)"/>
  <rect x="972" y="158" width="60" height="8" rx="4" fill="rgba(74,222,128,0.6)"/>
  
  <!-- Chart area -->
  <rect x="240" y="200" width="680" height="280" rx="12" fill="rgba(255,255,255,0.04)" stroke="rgba(255,255,255,0.08)" stroke-width="1"/>
  <rect x="264" y="220" width="120" height="12" rx="6" fill="rgba(255,255,255,0.3)"/>
  <!-- Chart bars -->
  <rect x="300" y="390" width="40" height="60" rx="4" fill="#f59e0b" opacity="0.7"/>
  <rect x="360" y="340" width="40" height="110" rx="4" fill="#f59e0b" opacity="0.7"/>
  <rect x="420" y="360" width="40" height="90" rx="4" fill="#f59e0b" opacity="0.7"/>
  <rect x="480" y="300" width="40" height="150" rx="4" fill="#f59e0b" opacity="0.9"/>
  <rect x="540" y="320" width="40" height="130" rx="4" fill="#f59e0b" opacity="0.7"/>
  <rect x="600" y="280" width="40" height="170" rx="4" fill="#f59e0b" opacity="0.9"/>
  <rect x="660" y="310" width="40" height="140" rx="4" fill="#f59e0b" opacity="0.7"/>
  <rect x="720" y="260" width="40" height="190" rx="4" fill="#f59e0b" opacity="0.9"/>
  <rect x="780" y="290" width="40" height="160" rx="4" fill="#f59e0b" opacity="0.7"/>
  <!-- Chart line -->
  <polyline points="320,380 380,330 440,350 500,290 560,310 620,270 680,300 740,250 800,280" fill="none" stroke="rgba(255,255,255,0.4)" stroke-width="2"/>
  
  <!-- Right panel -->
  <rect x="940" y="200" width="228" height="280" rx="12" fill="rgba(255,255,255,0.04)" stroke="rgba(255,255,255,0.08)" stroke-width="1"/>
  <rect x="960" y="220" width="100" height="12" rx="6" fill="rgba(255,255,255,0.3)"/>
  <!-- List items -->
  <rect x="960" y="252" width="188" height="40" rx="8" fill="rgba(255,255,255,0.05)"/>
  <rect x="972" y="264" width="80" height="8" rx="4" fill="rgba(255,255,255,0.3)"/>
  <rect x="972" y="276" width="50" height="6" rx="3" fill="rgba(74,222,128,0.5)"/>
  <rect x="960" y="300" width="188" height="40" rx="8" fill="rgba(255,255,255,0.05)"/>
  <rect x="972" y="312" width="80" height="8" rx="4" fill="rgba(255,255,255,0.3)"/>
  <rect x="972" y="324" width="50" height="6" rx="3" fill="rgba(251,146,60,0.5)"/>
  <rect x="960" y="348" width="188" height="40" rx="8" fill="rgba(255,255,255,0.05)"/>
  <rect x="972" y="360" width="80" height="8" rx="4" fill="rgba(255,255,255,0.3)"/>
  <rect x="972" y="372" width="50" height="6" rx="3" fill="rgba(74,222,128,0.5)"/>
  <rect x="960" y="396" width="188" height="40" rx="8" fill="rgba(255,255,255,0.05)"/>
  <rect x="972" y="408" width="80" height="8" rx="4" fill="rgba(255,255,255,0.3)"/>
  <rect x="972" y="420" width="50" height="6" rx="3" fill="rgba(74,222,128,0.5)"/>
  
  <!-- Bottom row -->
  <rect x="240" y="500" width="440" height="120" rx="12" fill="rgba(255,255,255,0.04)" stroke="rgba(255,255,255,0.08)" stroke-width="1"/>
  <rect x="264" y="520" width="80" height="10" rx="5" fill="rgba(255,255,255,0.2)"/>
  <rect x="264" y="544" width="380" height="8" rx="4" fill="rgba(255,255,255,0.08)"/>
  <rect x="264" y="560" width="280" height="8" rx="4" fill="rgba(255,255,255,0.08)"/>
  <rect x="264" y="576" width="320" height="8" rx="4" fill="rgba(255,255,255,0.08)"/>
  
  <rect x="700" y="500" width="468" height="120" rx="12" fill="rgba(255,255,255,0.04)" stroke="rgba(255,255,255,0.08)" stroke-width="1"/>
  <rect x="724" y="520" width="80" height="10" rx="5" fill="rgba(255,255,255,0.2)"/>
  <!-- Donut chart placeholder -->
  <circle cx="820" cy="570" r="40" fill="none" stroke="#f59e0b" stroke-width="16" opacity="0.7" stroke-dasharray="150 251"/>
  <circle cx="820" cy="570" r="40" fill="none" stroke="rgba(255,255,255,0.1)" stroke-width="16" stroke-dasharray="251 0"/>
  
  <!-- Title overlay -->
  <text x="600" y="640" font-family="Inter, system-ui, sans-serif" font-size="14" font-weight="600" fill="rgba(255,255,255,0.15)" text-anchor="middle">Matera Enhancer — Config</text>
  <text x="600" y="660" font-family="Inter, system-ui, sans-serif" font-size="11" fill="rgba(255,255,255,0.08)" text-anchor="middle">Paramétrage</text>
</svg>
