<svg xmlns="http://www.w3.org/2000/svg" width="1200" height="675" viewBox="0 0 1200 675">
  <rect x="0" y="0" width="1200" height="675" fill="#f9fafb"></rect>
  
  <g>
    <rect x="0" y="0" width="240" height="675" fill="#ffffff"></rect>
    <line x1="240" y1="0" x2="240" y2="675" stroke="#f3f4f6" stroke-width="1"></line>
    <line x1="0" y1="72" x2="240" y2="72" stroke="#f3f4f6" stroke-width="1"></line>
    <rect x="24" y="20" width="36" height="36" rx="10" fill="#16a34a"></rect>
    <g fill="#ffffff">
    <path d="M 42 39 Q 32 37 34 27 Q 44 29 42 39 Z"></path>
    <path d="M 42 39 Q 52 37 50 27 Q 40 29 42 39 Z"></path>
    <rect x="40.6" y="38" width="2.8" height="10" rx="1.4"></rect>
  </g>
    <text x="72" y="43" font-family="-apple-system,BlinkMacSystemFont,Segoe UI,Roboto,Helvetica Neue,Arial,sans-serif" font-size="17" font-weight="700" fill="#111827">Agri Bilan</text>
    
      <g>
        
        <path d="M 33 115 L 40 108 L 47 115 L 47 122 L 33 122 Z" fill="none" stroke="#9ca3af" stroke-width="1.6" stroke-linejoin="round"></path>
        <text x="60" y="120" font-family="-apple-system,BlinkMacSystemFont,Segoe UI,Roboto,Helvetica Neue,Arial,sans-serif" font-size="14" font-weight="600" fill="#6b7280">Accueil</text>
      </g>
      <g>
        
        <g stroke="#9ca3af" stroke-width="1.8" stroke-linecap="round">
        <line x1="33" y1="164" x2="47" y2="164"></line>
        <line x1="33" y1="169" x2="47" y2="169"></line>
        <line x1="33" y1="174" x2="47" y2="174"></line>
      </g>
        <text x="60" y="174" font-family="-apple-system,BlinkMacSystemFont,Segoe UI,Roboto,Helvetica Neue,Arial,sans-serif" font-size="14" font-weight="600" fill="#6b7280">Saisies</text>
      </g>
      <g>
        
        <g fill="#9ca3af">
        <rect x="33" y="224" width="3.4" height="6" rx="1"></rect>
        <rect x="38.3" y="219" width="3.4" height="11" rx="1"></rect>
        <rect x="43.6" y="216" width="3.4" height="14" rx="1"></rect>
      </g>
        <text x="60" y="228" font-family="-apple-system,BlinkMacSystemFont,Segoe UI,Roboto,Helvetica Neue,Arial,sans-serif" font-size="14" font-weight="600" fill="#6b7280">Synthèse</text>
      </g>
      <g>
        <rect x="16" y="254" width="208" height="46" rx="12" fill="#f0fdf4"></rect>
        <g fill="none" stroke="#16a34a" stroke-width="1.6" stroke-linejoin="round">
        <path d="M 40 270 L 47 275 L 40 280 L 33 275 Z"></path>
        <path d="M 33 279.5 L 40 284.5 L 47 279.5"></path>
      </g>
        <text x="60" y="282" font-family="-apple-system,BlinkMacSystemFont,Segoe UI,Roboto,Helvetica Neue,Arial,sans-serif" font-size="14" font-weight="600" fill="#15803d">Comparer</text>
      </g>
      <g>
        
        <g fill="#9ca3af">
        <circle cx="40" cy="328" r="3.4"></circle>
        <path d="M 33.5 338 Q 33.5 332.5 40 332.5 Q 46.5 332.5 46.5 338 Z"></path>
      </g>
        <text x="60" y="336" font-family="-apple-system,BlinkMacSystemFont,Segoe UI,Roboto,Helvetica Neue,Arial,sans-serif" font-size="14" font-weight="600" fill="#6b7280">Profil</text>
      </g>
    <line x1="16" y1="603" x2="224" y2="603" stroke="#f3f4f6" stroke-width="1"></line>
    <circle cx="40" cy="633" r="16" fill="#e5e7eb"></circle>
    <text x="66" y="629" font-family="-apple-system,BlinkMacSystemFont,Segoe UI,Roboto,Helvetica Neue,Arial,sans-serif" font-size="13" font-weight="600" fill="#111827">Ferme du Grand Chêne</text>
    <text x="66" y="645" font-family="-apple-system,BlinkMacSystemFont,Segoe UI,Roboto,Helvetica Neue,Arial,sans-serif" font-size="11" fill="#9ca3af">contact@grandchene.fr</text>
  </g>
  <text x="264" y="60" font-family="-apple-system,BlinkMacSystemFont,Segoe UI,Roboto,Helvetica Neue,Arial,sans-serif" font-size="24" font-weight="700" fill="#111827">Comparer les campagnes</text>
  <text x="264" y="80" font-family="-apple-system,BlinkMacSystemFont,Segoe UI,Roboto,Helvetica Neue,Arial,sans-serif" font-size="13" fill="#6b7280">2025 vs 2024</text>
  
  <rect x="264" y="100" width="120" height="34" rx="10" fill="#16a34a"></rect>
  <text x="324" y="122" font-family="-apple-system,BlinkMacSystemFont,Segoe UI,Roboto,Helvetica Neue,Arial,sans-serif" font-size="12" font-weight="700" fill="#ffffff" text-anchor="middle">Campagne 2025</text>
  <rect x="394" y="100" width="120" height="34" rx="10" fill="#ffffff" stroke="#e5e7eb"></rect>
  <text x="454" y="122" font-family="-apple-system,BlinkMacSystemFont,Segoe UI,Roboto,Helvetica Neue,Arial,sans-serif" font-size="12" font-weight="600" fill="#4b5563" text-anchor="middle">Campagne 2024</text>
  
  <rect x="264" y="152" width="444" height="130" rx="16" fill="#ffffff" stroke="undefined" stroke-width="2"></rect>
  <text x="284" y="180" font-family="-apple-system,BlinkMacSystemFont,Segoe UI,Roboto,Helvetica Neue,Arial,sans-serif" font-size="13" font-weight="700" fill="#15803d">Campagne 2025</text>
  <rect x="732" y="152" width="444" height="130" rx="16" fill="#ffffff" stroke="#e5e7eb" stroke-width="2"></rect>
  <text x="752" y="180" font-family="-apple-system,BlinkMacSystemFont,Segoe UI,Roboto,Helvetica Neue,Arial,sans-serif" font-size="13" font-weight="700" fill="#374151">Campagne 2024</text>
  
    <text x="284" y="204" font-family="-apple-system,BlinkMacSystemFont,Segoe UI,Roboto,Helvetica Neue,Arial,sans-serif" font-size="10" fill="#6b7280">Recettes</text>
    <text x="284" y="224" font-family="-apple-system,BlinkMacSystemFont,Segoe UI,Roboto,Helvetica Neue,Arial,sans-serif" font-size="15" font-weight="700" fill="#15803d">+128 400 €</text>
    <text x="418.66666666666663" y="204" font-family="-apple-system,BlinkMacSystemFont,Segoe UI,Roboto,Helvetica Neue,Arial,sans-serif" font-size="10" fill="#6b7280">Dépenses</text>
    <text x="418.66666666666663" y="224" font-family="-apple-system,BlinkMacSystemFont,Segoe UI,Roboto,Helvetica Neue,Arial,sans-serif" font-size="15" font-weight="700" fill="#dc2626">−86 950 €</text>
    <text x="553.3333333333333" y="204" font-family="-apple-system,BlinkMacSystemFont,Segoe UI,Roboto,Helvetica Neue,Arial,sans-serif" font-size="10" fill="#6b7280">Résultat</text>
    <text x="553.3333333333333" y="224" font-family="-apple-system,BlinkMacSystemFont,Segoe UI,Roboto,Helvetica Neue,Arial,sans-serif" font-size="15" font-weight="700" fill="#15803d">+41 450 €</text>
    
    <text x="752" y="204" font-family="-apple-system,BlinkMacSystemFont,Segoe UI,Roboto,Helvetica Neue,Arial,sans-serif" font-size="10" fill="#6b7280">Recettes</text>
    <text x="752" y="224" font-family="-apple-system,BlinkMacSystemFont,Segoe UI,Roboto,Helvetica Neue,Arial,sans-serif" font-size="15" font-weight="700" fill="#15803d">+94 200 €</text>
    <text x="886.6666666666666" y="204" font-family="-apple-system,BlinkMacSystemFont,Segoe UI,Roboto,Helvetica Neue,Arial,sans-serif" font-size="10" fill="#6b7280">Dépenses</text>
    <text x="886.6666666666666" y="224" font-family="-apple-system,BlinkMacSystemFont,Segoe UI,Roboto,Helvetica Neue,Arial,sans-serif" font-size="15" font-weight="700" fill="#dc2626">−79 600 €</text>
    <text x="1021.3333333333333" y="204" font-family="-apple-system,BlinkMacSystemFont,Segoe UI,Roboto,Helvetica Neue,Arial,sans-serif" font-size="10" fill="#6b7280">Résultat</text>
    <text x="1021.3333333333333" y="224" font-family="-apple-system,BlinkMacSystemFont,Segoe UI,Roboto,Helvetica Neue,Arial,sans-serif" font-size="15" font-weight="700" fill="#15803d">+14 600 €</text>
    <rect x="264" y="312" width="912" height="210" rx="16" fill="#ffffff" stroke="#f3f4f6"></rect>
  <text x="284" y="340" font-family="-apple-system,BlinkMacSystemFont,Segoe UI,Roboto,Helvetica Neue,Arial,sans-serif" font-size="13" font-weight="700" fill="#374151">Résultat par culture — cultures communes</text>
  <circle cx="986" cy="338" r="5" fill="#16a34a"></circle><text x="996" y="342" font-family="-apple-system,BlinkMacSystemFont,Segoe UI,Roboto,Helvetica Neue,Arial,sans-serif" font-size="10" fill="#6b7280">2025</text>
  <circle cx="1056" cy="338" r="5" fill="#9ca3af"></circle><text x="1066" y="342" font-family="-apple-system,BlinkMacSystemFont,Segoe UI,Roboto,Helvetica Neue,Arial,sans-serif" font-size="10" fill="#6b7280">2024</text>
  
    <rect x="416" y="414.3125" width="26" height="28.6875" rx="3" fill="#16a34a"></rect>
    <rect x="470" y="431.6666666666667" width="26" height="11.333333333333334" rx="3" fill="#9ca3af"></rect>
    <text x="456" y="465" font-family="-apple-system,BlinkMacSystemFont,Segoe UI,Roboto,Helvetica Neue,Arial,sans-serif" font-size="11" fill="#4b5563" text-anchor="middle">Blé</text>
    
    <rect x="680" y="364.0208333333333" width="26" height="78.97916666666667" rx="3" fill="#16a34a"></rect>
    <rect x="734" y="387.0416666666667" width="26" height="55.95833333333333" rx="3" fill="#9ca3af"></rect>
    <text x="720" y="465" font-family="-apple-system,BlinkMacSystemFont,Segoe UI,Roboto,Helvetica Neue,Arial,sans-serif" font-size="11" fill="#4b5563" text-anchor="middle">Noix</text>
    
    <rect x="944" y="439.6354166666667" width="26" height="3.364583333333333" rx="3" fill="#16a34a"></rect>
    <rect x="998" y="443" width="26" height="2.125" rx="3" fill="#9ca3af"></rect>
    <text x="984" y="465" font-family="-apple-system,BlinkMacSystemFont,Segoe UI,Roboto,Helvetica Neue,Arial,sans-serif" font-size="11" fill="#4b5563" text-anchor="middle">Luzerne</text>
    <line x1="324" y1="443" x2="1116" y2="443" stroke="#e5e7eb"></line>
</svg>