<svg xmlns="http://www.w3.org/2000/svg" width="1200" height="675" viewBox="0 0 1200 675">
  <rect x="0" y="0" width="1200" height="675" fill="#f9fafb"></rect>
  
  <g>
    <rect x="0" y="0" width="240" height="675" fill="#ffffff"></rect>
    <line x1="240" y1="0" x2="240" y2="675" stroke="#f3f4f6" stroke-width="1"></line>
    <line x1="0" y1="72" x2="240" y2="72" stroke="#f3f4f6" stroke-width="1"></line>
    <rect x="24" y="20" width="36" height="36" rx="10" fill="#16a34a"></rect>
    <g fill="#ffffff">
    <path d="M 42 39 Q 32 37 34 27 Q 44 29 42 39 Z"></path>
    <path d="M 42 39 Q 52 37 50 27 Q 40 29 42 39 Z"></path>
    <rect x="40.6" y="38" width="2.8" height="10" rx="1.4"></rect>
  </g>
    <text x="72" y="43" font-family="-apple-system,BlinkMacSystemFont,Segoe UI,Roboto,Helvetica Neue,Arial,sans-serif" font-size="17" font-weight="700" fill="#111827">Agri Bilan</text>
    
      <g>
        
        <path d="M 33 115 L 40 108 L 47 115 L 47 122 L 33 122 Z" fill="none" stroke="#9ca3af" stroke-width="1.6" stroke-linejoin="round"></path>
        <text x="60" y="120" font-family="-apple-system,BlinkMacSystemFont,Segoe UI,Roboto,Helvetica Neue,Arial,sans-serif" font-size="14" font-weight="600" fill="#6b7280">Accueil</text>
      </g>
      <g>
        
        <g stroke="#9ca3af" stroke-width="1.8" stroke-linecap="round">
        <line x1="33" y1="164" x2="47" y2="164"></line>
        <line x1="33" y1="169" x2="47" y2="169"></line>
        <line x1="33" y1="174" x2="47" y2="174"></line>
      </g>
        <text x="60" y="174" font-family="-apple-system,BlinkMacSystemFont,Segoe UI,Roboto,Helvetica Neue,Arial,sans-serif" font-size="14" font-weight="600" fill="#6b7280">Saisies</text>
      </g>
      <g>
        <rect x="16" y="200" width="208" height="46" rx="12" fill="#f0fdf4"></rect>
        <g fill="#16a34a">
        <rect x="33" y="224" width="3.4" height="6" rx="1"></rect>
        <rect x="38.3" y="219" width="3.4" height="11" rx="1"></rect>
        <rect x="43.6" y="216" width="3.4" height="14" rx="1"></rect>
      </g>
        <text x="60" y="228" font-family="-apple-system,BlinkMacSystemFont,Segoe UI,Roboto,Helvetica Neue,Arial,sans-serif" font-size="14" font-weight="600" fill="#15803d">Synthèse</text>
      </g>
      <g>
        
        <g fill="none" stroke="#9ca3af" stroke-width="1.6" stroke-linejoin="round">
        <path d="M 40 270 L 47 275 L 40 280 L 33 275 Z"></path>
        <path d="M 33 279.5 L 40 284.5 L 47 279.5"></path>
      </g>
        <text x="60" y="282" font-family="-apple-system,BlinkMacSystemFont,Segoe UI,Roboto,Helvetica Neue,Arial,sans-serif" font-size="14" font-weight="600" fill="#6b7280">Comparer</text>
      </g>
      <g>
        
        <g fill="#9ca3af">
        <circle cx="40" cy="328" r="3.4"></circle>
        <path d="M 33.5 338 Q 33.5 332.5 40 332.5 Q 46.5 332.5 46.5 338 Z"></path>
      </g>
        <text x="60" y="336" font-family="-apple-system,BlinkMacSystemFont,Segoe UI,Roboto,Helvetica Neue,Arial,sans-serif" font-size="14" font-weight="600" fill="#6b7280">Profil</text>
      </g>
    <line x1="16" y1="603" x2="224" y2="603" stroke="#f3f4f6" stroke-width="1"></line>
    <circle cx="40" cy="633" r="16" fill="#e5e7eb"></circle>
    <text x="66" y="629" font-family="-apple-system,BlinkMacSystemFont,Segoe UI,Roboto,Helvetica Neue,Arial,sans-serif" font-size="13" font-weight="600" fill="#111827">Ferme du Grand Chêne</text>
    <text x="66" y="645" font-family="-apple-system,BlinkMacSystemFont,Segoe UI,Roboto,Helvetica Neue,Arial,sans-serif" font-size="11" fill="#9ca3af">contact@grandchene.fr</text>
  </g>
  <text x="264" y="60" font-family="-apple-system,BlinkMacSystemFont,Segoe UI,Roboto,Helvetica Neue,Arial,sans-serif" font-size="24" font-weight="700" fill="#111827">Synthèse</text>
  <text x="264" y="80" font-family="-apple-system,BlinkMacSystemFont,Segoe UI,Roboto,Helvetica Neue,Arial,sans-serif" font-size="13" fill="#6b7280">Campagne 2025</text>
  <rect x="1030" y="40" width="146" height="40" rx="12" fill="#ffffff" stroke="#e5e7eb"></rect>
  <text x="1103" y="65" font-family="-apple-system,BlinkMacSystemFont,Segoe UI,Roboto,Helvetica Neue,Arial,sans-serif" font-size="12" font-weight="600" fill="#374151" text-anchor="middle">⬇ Exporter CSV</text>
  
  <rect x="264" y="100" width="912" height="92" rx="16" fill="#ffffff" stroke="#f3f4f6"></rect>
  <text x="284" y="126" font-family="-apple-system,BlinkMacSystemFont,Segoe UI,Roboto,Helvetica Neue,Arial,sans-serif" font-size="12" font-weight="600" fill="#6b7280">Exploitation — Campagne 2025</text>
  
    
    <text x="416" y="148" font-family="-apple-system,BlinkMacSystemFont,Segoe UI,Roboto,Helvetica Neue,Arial,sans-serif" font-size="12" fill="#6b7280" text-anchor="middle">Recettes</text>
    <text x="416" y="172" font-family="-apple-system,BlinkMacSystemFont,Segoe UI,Roboto,Helvetica Neue,Arial,sans-serif" font-size="19" font-weight="700" fill="#15803d" text-anchor="middle">+128 400 €</text>
    
    <line x1="568" y1="132" x2="568" y2="176" stroke="#f3f4f6"></line>
    <text x="720" y="148" font-family="-apple-system,BlinkMacSystemFont,Segoe UI,Roboto,Helvetica Neue,Arial,sans-serif" font-size="12" fill="#6b7280" text-anchor="middle">Dépenses</text>
    <text x="720" y="172" font-family="-apple-system,BlinkMacSystemFont,Segoe UI,Roboto,Helvetica Neue,Arial,sans-serif" font-size="19" font-weight="700" fill="#dc2626" text-anchor="middle">−86 950 €</text>
    
    <line x1="872" y1="132" x2="872" y2="176" stroke="#f3f4f6"></line>
    <text x="1024" y="148" font-family="-apple-system,BlinkMacSystemFont,Segoe UI,Roboto,Helvetica Neue,Arial,sans-serif" font-size="12" fill="#6b7280" text-anchor="middle">Résultat</text>
    <text x="1024" y="172" font-family="-apple-system,BlinkMacSystemFont,Segoe UI,Roboto,Helvetica Neue,Arial,sans-serif" font-size="19" font-weight="700" fill="#15803d" text-anchor="middle">+41 450 €</text>
    <rect x="264" y="210" width="560" height="210" rx="16" fill="#ffffff" stroke="#f3f4f6"></rect>
  <text x="284" y="238" font-family="-apple-system,BlinkMacSystemFont,Segoe UI,Roboto,Helvetica Neue,Arial,sans-serif" font-size="13" font-weight="700" fill="#374151">Évolution mensuelle</text>
    <rect x="305.1111111111111" y="355.1111111111111" width="15.555555555555557" height="28.888888888888886" rx="2" fill="#ef4444" opacity="0.85"></rect>
    <rect x="322.8888888888889" y="384" width="15.555555555555557" height="0" rx="2" fill="#16a34a" opacity="0.85"></rect>
    <text x="321.77777777777777" y="402" font-family="-apple-system,BlinkMacSystemFont,Segoe UI,Roboto,Helvetica Neue,Arial,sans-serif" font-size="9" fill="#9ca3af" text-anchor="middle">Jan</text>
    
    <rect x="360.66666666666663" y="333.44444444444446" width="15.555555555555557" height="50.55555555555556" rx="2" fill="#ef4444" opacity="0.85"></rect>
    <rect x="378.44444444444446" y="384" width="15.555555555555557" height="0" rx="2" fill="#16a34a" opacity="0.85"></rect>
    <text x="377.3333333333333" y="402" font-family="-apple-system,BlinkMacSystemFont,Segoe UI,Roboto,Helvetica Neue,Arial,sans-serif" font-size="9" fill="#9ca3af" text-anchor="middle">Fév</text>
    
    <rect x="416.2222222222222" y="319" width="15.555555555555557" height="65" rx="2" fill="#ef4444" opacity="0.85"></rect>
    <rect x="434" y="369.55555555555554" width="15.555555555555557" height="14.444444444444443" rx="2" fill="#16a34a" opacity="0.85"></rect>
    <text x="432.88888888888886" y="402" font-family="-apple-system,BlinkMacSystemFont,Segoe UI,Roboto,Helvetica Neue,Arial,sans-serif" font-size="9" fill="#9ca3af" text-anchor="middle">Mar</text>
    
    <rect x="471.77777777777777" y="297.33333333333337" width="15.555555555555557" height="86.66666666666666" rx="2" fill="#ef4444" opacity="0.85"></rect>
    <rect x="489.5555555555556" y="384" width="15.555555555555557" height="0" rx="2" fill="#16a34a" opacity="0.85"></rect>
    <text x="488.44444444444446" y="402" font-family="-apple-system,BlinkMacSystemFont,Segoe UI,Roboto,Helvetica Neue,Arial,sans-serif" font-size="9" fill="#9ca3af" text-anchor="middle">Avr</text>
    
    <rect x="527.3333333333333" y="340.6666666666667" width="15.555555555555557" height="43.33333333333333" rx="2" fill="#ef4444" opacity="0.85"></rect>
    <rect x="545.1111111111111" y="384" width="15.555555555555557" height="0" rx="2" fill="#16a34a" opacity="0.85"></rect>
    <text x="544" y="402" font-family="-apple-system,BlinkMacSystemFont,Segoe UI,Roboto,Helvetica Neue,Arial,sans-serif" font-size="9" fill="#9ca3af" text-anchor="middle">Mai</text>
    
    <rect x="582.8888888888889" y="347.8888888888889" width="15.555555555555557" height="36.111111111111114" rx="2" fill="#ef4444" opacity="0.85"></rect>
    <rect x="600.6666666666667" y="268.44444444444446" width="15.555555555555557" height="115.55555555555554" rx="2" fill="#16a34a" opacity="0.85"></rect>
    <text x="599.5555555555557" y="402" font-family="-apple-system,BlinkMacSystemFont,Segoe UI,Roboto,Helvetica Neue,Arial,sans-serif" font-size="9" fill="#9ca3af" text-anchor="middle">Jun</text>
    
    <rect x="638.4444444444445" y="326.22222222222223" width="15.555555555555557" height="57.77777777777777" rx="2" fill="#ef4444" opacity="0.85"></rect>
    <rect x="656.2222222222223" y="362.3333333333333" width="15.555555555555557" height="21.666666666666664" rx="2" fill="#16a34a" opacity="0.85"></rect>
    <text x="655.1111111111112" y="402" font-family="-apple-system,BlinkMacSystemFont,Segoe UI,Roboto,Helvetica Neue,Arial,sans-serif" font-size="9" fill="#9ca3af" text-anchor="middle">Jul</text>
    
    <rect x="694" y="362.3333333333333" width="15.555555555555557" height="21.666666666666664" rx="2" fill="#ef4444" opacity="0.85"></rect>
    <rect x="711.7777777777778" y="384" width="15.555555555555557" height="0" rx="2" fill="#16a34a" opacity="0.85"></rect>
    <text x="710.6666666666667" y="402" font-family="-apple-system,BlinkMacSystemFont,Segoe UI,Roboto,Helvetica Neue,Arial,sans-serif" font-size="9" fill="#9ca3af" text-anchor="middle">Aoû</text>
    
    <rect x="749.5555555555555" y="340.6666666666667" width="15.555555555555557" height="43.33333333333333" rx="2" fill="#ef4444" opacity="0.85"></rect>
    <rect x="767.3333333333334" y="355.1111111111111" width="15.555555555555557" height="28.888888888888886" rx="2" fill="#16a34a" opacity="0.85"></rect>
    <text x="766.2222222222223" y="402" font-family="-apple-system,BlinkMacSystemFont,Segoe UI,Roboto,Helvetica Neue,Arial,sans-serif" font-size="9" fill="#9ca3af" text-anchor="middle">Sep</text>
    <line x1="294" y1="384" x2="794" y2="384" stroke="#e5e7eb"></line><circle cx="684" cy="236" r="5" fill="#ef4444"></circle><text x="694" y="240" font-family="-apple-system,BlinkMacSystemFont,Segoe UI,Roboto,Helvetica Neue,Arial,sans-serif" font-size="10" fill="#6b7280">Dépenses</text>
  <circle cx="754" cy="236" r="5" fill="#16a34a"></circle><text x="764" y="240" font-family="-apple-system,BlinkMacSystemFont,Segoe UI,Roboto,Helvetica Neue,Arial,sans-serif" font-size="10" fill="#6b7280">Recettes</text><rect x="848" y="210" width="328" height="210" rx="16" fill="#ffffff" stroke="#f3f4f6"></rect>
  <text x="868" y="238" font-family="-apple-system,BlinkMacSystemFont,Segoe UI,Roboto,Helvetica Neue,Arial,sans-serif" font-size="13" font-weight="700" fill="#374151">Dépenses par culture</text><path d="M 918 282 A 48 48 0 0 1 950.8582610845771 364.99049411622775 L 935.7982247541458 348.9531843129567 A 26 26 0 0 0 918 304 Z" fill="#eab308"></path><path d="M 950.8582610845771 364.99049411622775 A 48 48 0 0 1 874.568301481631 350.43740599512347 L 894.4744966358835 341.07026158069186 A 26 26 0 0 0 935.7982247541458 348.9531843129567 Z" fill="#a16207"></path><path d="M 874.568301481631 350.43740599512347 A 48 48 0 0 1 885.1417389154229 295.00950588377225 L 900.201775245854 311.0468156870433 A 26 26 0 0 0 894.4744966358835 341.07026158069186 Z" fill="#f97316"></path><path d="M 885.1417389154229 295.00950588377225 A 48 48 0 0 1 906.0628854160869 283.5080082658257 L 911.5340629337138 304.8168378106556 A 26 26 0 0 0 900.201775245854 311.0468156870433 Z" fill="#84cc16"></path><path d="M 906.0628854160869 283.5080082658257 A 48 48 0 0 1 918 282 L 918 304 A 26 26 0 0 0 911.5340629337138 304.8168378106556 Z" fill="#94a3b8"></path><rect x="998" y="261" width="9" height="9" rx="2" fill="#eab308"></rect>
    <text x="1013" y="270" font-family="-apple-system,BlinkMacSystemFont,Segoe UI,Roboto,Helvetica Neue,Arial,sans-serif" font-size="10" fill="#4b5563">Blé · 38%</text><rect x="998" y="281" width="9" height="9" rx="2" fill="#a16207"></rect>
    <text x="1013" y="290" font-family="-apple-system,BlinkMacSystemFont,Segoe UI,Roboto,Helvetica Neue,Arial,sans-serif" font-size="10" fill="#4b5563">Noix · 30%</text><rect x="998" y="301" width="9" height="9" rx="2" fill="#f97316"></rect>
    <text x="1013" y="310" font-family="-apple-system,BlinkMacSystemFont,Segoe UI,Roboto,Helvetica Neue,Arial,sans-serif" font-size="10" fill="#4b5563">Tournesol · 20%</text><rect x="998" y="321" width="9" height="9" rx="2" fill="#84cc16"></rect>
    <text x="1013" y="330" font-family="-apple-system,BlinkMacSystemFont,Segoe UI,Roboto,Helvetica Neue,Arial,sans-serif" font-size="10" fill="#4b5563">Luzerne · 8%</text><rect x="998" y="341" width="9" height="9" rx="2" fill="#94a3b8"></rect>
    <text x="1013" y="350" font-family="-apple-system,BlinkMacSystemFont,Segoe UI,Roboto,Helvetica Neue,Arial,sans-serif" font-size="10" fill="#4b5563">Sorgho · 4%</text><text x="264" y="454" font-family="-apple-system,BlinkMacSystemFont,Segoe UI,Roboto,Helvetica Neue,Arial,sans-serif" font-size="14" font-weight="700" fill="#374151">Détail par culture</text>
    <rect x="264" y="470" width="448" height="118" rx="16" fill="#f0fdf4" stroke="#bbf7d0" stroke-width="2"></rect>
    <text x="284" y="498" font-family="-apple-system,BlinkMacSystemFont,Segoe UI,Roboto,Helvetica Neue,Arial,sans-serif" font-size="14" font-weight="700" fill="#111827">Noix</text>
    <text x="284" y="515" font-family="-apple-system,BlinkMacSystemFont,Segoe UI,Roboto,Helvetica Neue,Arial,sans-serif" font-size="11" fill="#6b7280">10 ha · <tspan fill="#15803d">+2 230 €/ha</tspan></text>
    <text x="692" y="504" font-family="-apple-system,BlinkMacSystemFont,Segoe UI,Roboto,Helvetica Neue,Arial,sans-serif" font-size="17" font-weight="700" fill="#15803d" text-anchor="end">+22 300 €</text>
    <line x1="280" y1="526" x2="696" y2="526" stroke="#e5e7eb"></line>
    <text x="353.6" y="546" font-family="-apple-system,BlinkMacSystemFont,Segoe UI,Roboto,Helvetica Neue,Arial,sans-serif" font-size="10" fill="#6b7280" text-anchor="middle">Recettes</text>
    <text x="353.6" y="564" font-family="-apple-system,BlinkMacSystemFont,Segoe UI,Roboto,Helvetica Neue,Arial,sans-serif" font-size="12" font-weight="700" fill="#15803d" text-anchor="middle">+24 800 €</text>
    <text x="488" y="546" font-family="-apple-system,BlinkMacSystemFont,Segoe UI,Roboto,Helvetica Neue,Arial,sans-serif" font-size="10" fill="#6b7280" text-anchor="middle">Dépenses</text>
    <text x="488" y="564" font-family="-apple-system,BlinkMacSystemFont,Segoe UI,Roboto,Helvetica Neue,Arial,sans-serif" font-size="12" font-weight="700" fill="#dc2626" text-anchor="middle">−2 500 €</text>
    <text x="622.4000000000001" y="546" font-family="-apple-system,BlinkMacSystemFont,Segoe UI,Roboto,Helvetica Neue,Arial,sans-serif" font-size="10" fill="#6b7280" text-anchor="middle">Résultat</text>
    <text x="622.4000000000001" y="564" font-family="-apple-system,BlinkMacSystemFont,Segoe UI,Roboto,Helvetica Neue,Arial,sans-serif" font-size="12" font-weight="700" fill="#15803d" text-anchor="middle">+22 300 €</text>
    
    <rect x="728" y="470" width="448" height="118" rx="16" fill="#f0fdf4" stroke="#bbf7d0" stroke-width="2"></rect>
    <text x="748" y="498" font-family="-apple-system,BlinkMacSystemFont,Segoe UI,Roboto,Helvetica Neue,Arial,sans-serif" font-size="14" font-weight="700" fill="#111827">Blé</text>
    <text x="748" y="515" font-family="-apple-system,BlinkMacSystemFont,Segoe UI,Roboto,Helvetica Neue,Arial,sans-serif" font-size="11" fill="#6b7280">12.8 ha · <tspan fill="#15803d">+633 €/ha</tspan></text>
    <text x="1156" y="504" font-family="-apple-system,BlinkMacSystemFont,Segoe UI,Roboto,Helvetica Neue,Arial,sans-serif" font-size="17" font-weight="700" fill="#15803d" text-anchor="end">+8 100 €</text>
    <line x1="744" y1="526" x2="1160" y2="526" stroke="#e5e7eb"></line>
    <text x="817.6" y="546" font-family="-apple-system,BlinkMacSystemFont,Segoe UI,Roboto,Helvetica Neue,Arial,sans-serif" font-size="10" fill="#6b7280" text-anchor="middle">Recettes</text>
    <text x="817.6" y="564" font-family="-apple-system,BlinkMacSystemFont,Segoe UI,Roboto,Helvetica Neue,Arial,sans-serif" font-size="12" font-weight="700" fill="#15803d" text-anchor="middle">+38 200 €</text>
    <text x="952" y="546" font-family="-apple-system,BlinkMacSystemFont,Segoe UI,Roboto,Helvetica Neue,Arial,sans-serif" font-size="10" fill="#6b7280" text-anchor="middle">Dépenses</text>
    <text x="952" y="564" font-family="-apple-system,BlinkMacSystemFont,Segoe UI,Roboto,Helvetica Neue,Arial,sans-serif" font-size="12" font-weight="700" fill="#dc2626" text-anchor="middle">−30 100 €</text>
    <text x="1086.4" y="546" font-family="-apple-system,BlinkMacSystemFont,Segoe UI,Roboto,Helvetica Neue,Arial,sans-serif" font-size="10" fill="#6b7280" text-anchor="middle">Résultat</text>
    <text x="1086.4" y="564" font-family="-apple-system,BlinkMacSystemFont,Segoe UI,Roboto,Helvetica Neue,Arial,sans-serif" font-size="12" font-weight="700" fill="#15803d" text-anchor="middle">+8 100 €</text>
    
    <rect x="264" y="604" width="448" height="118" rx="16" fill="#fef2f2" stroke="#fecaca" stroke-width="2"></rect>
    <text x="284" y="632" font-family="-apple-system,BlinkMacSystemFont,Segoe UI,Roboto,Helvetica Neue,Arial,sans-serif" font-size="14" font-weight="700" fill="#111827">Tournesol</text>
    <text x="284" y="649" font-family="-apple-system,BlinkMacSystemFont,Segoe UI,Roboto,Helvetica Neue,Arial,sans-serif" font-size="11" fill="#6b7280">9.5 ha · <tspan fill="#dc2626">−195 €/ha</tspan></text>
    <text x="692" y="638" font-family="-apple-system,BlinkMacSystemFont,Segoe UI,Roboto,Helvetica Neue,Arial,sans-serif" font-size="17" font-weight="700" fill="#dc2626" text-anchor="end">−1 850 €</text>
    <line x1="280" y1="660" x2="696" y2="660" stroke="#e5e7eb"></line>
    <text x="353.6" y="680" font-family="-apple-system,BlinkMacSystemFont,Segoe UI,Roboto,Helvetica Neue,Arial,sans-serif" font-size="10" fill="#6b7280" text-anchor="middle">Recettes</text>
    <text x="353.6" y="698" font-family="-apple-system,BlinkMacSystemFont,Segoe UI,Roboto,Helvetica Neue,Arial,sans-serif" font-size="12" font-weight="700" fill="#15803d" text-anchor="middle">+21 000 €</text>
    <text x="488" y="680" font-family="-apple-system,BlinkMacSystemFont,Segoe UI,Roboto,Helvetica Neue,Arial,sans-serif" font-size="10" fill="#6b7280" text-anchor="middle">Dépenses</text>
    <text x="488" y="698" font-family="-apple-system,BlinkMacSystemFont,Segoe UI,Roboto,Helvetica Neue,Arial,sans-serif" font-size="12" font-weight="700" fill="#dc2626" text-anchor="middle">−22 850 €</text>
    <text x="622.4000000000001" y="680" font-family="-apple-system,BlinkMacSystemFont,Segoe UI,Roboto,Helvetica Neue,Arial,sans-serif" font-size="10" fill="#6b7280" text-anchor="middle">Résultat</text>
    <text x="622.4000000000001" y="698" font-family="-apple-system,BlinkMacSystemFont,Segoe UI,Roboto,Helvetica Neue,Arial,sans-serif" font-size="12" font-weight="700" fill="#dc2626" text-anchor="middle">−1 850 €</text>
    
    <rect x="728" y="604" width="448" height="118" rx="16" fill="#fffbeb" stroke="#fde68a" stroke-width="2"></rect>
    <text x="748" y="632" font-family="-apple-system,BlinkMacSystemFont,Segoe UI,Roboto,Helvetica Neue,Arial,sans-serif" font-size="14" font-weight="700" fill="#111827">Luzerne</text>
    <text x="748" y="649" font-family="-apple-system,BlinkMacSystemFont,Segoe UI,Roboto,Helvetica Neue,Arial,sans-serif" font-size="11" fill="#6b7280">3 ha · <tspan fill="#b45309">+317 €/ha</tspan></text>
    <text x="1156" y="638" font-family="-apple-system,BlinkMacSystemFont,Segoe UI,Roboto,Helvetica Neue,Arial,sans-serif" font-size="17" font-weight="700" fill="#b45309" text-anchor="end">+950 €</text>
    <line x1="744" y1="660" x2="1160" y2="660" stroke="#e5e7eb"></line>
    <text x="817.6" y="680" font-family="-apple-system,BlinkMacSystemFont,Segoe UI,Roboto,Helvetica Neue,Arial,sans-serif" font-size="10" fill="#6b7280" text-anchor="middle">Recettes</text>
    <text x="817.6" y="698" font-family="-apple-system,BlinkMacSystemFont,Segoe UI,Roboto,Helvetica Neue,Arial,sans-serif" font-size="12" font-weight="700" fill="#15803d" text-anchor="middle">+3 200 €</text>
    <text x="952" y="680" font-family="-apple-system,BlinkMacSystemFont,Segoe UI,Roboto,Helvetica Neue,Arial,sans-serif" font-size="10" fill="#6b7280" text-anchor="middle">Dépenses</text>
    <text x="952" y="698" font-family="-apple-system,BlinkMacSystemFont,Segoe UI,Roboto,Helvetica Neue,Arial,sans-serif" font-size="12" font-weight="700" fill="#dc2626" text-anchor="middle">−2 250 €</text>
    <text x="1086.4" y="680" font-family="-apple-system,BlinkMacSystemFont,Segoe UI,Roboto,Helvetica Neue,Arial,sans-serif" font-size="10" fill="#6b7280" text-anchor="middle">Résultat</text>
    <text x="1086.4" y="698" font-family="-apple-system,BlinkMacSystemFont,Segoe UI,Roboto,Helvetica Neue,Arial,sans-serif" font-size="12" font-weight="700" fill="#b45309" text-anchor="middle">+950 €</text>
    
</svg>